<svg xmlns="http://www.w3.org/2000/svg" viewBox="0 0 256 256" width="256" height="256">
  <defs>
    <linearGradient id="bgGlow" x1="0%" y1="0%" x2="100%" y2="100%">
      <stop offset="0%" stop-color="#FF512F" />
      <stop offset="100%" stop-color="#F09819" />
    </linearGradient>
    <filter id="shadow" x="-20%" y="-20%" width="140%" height="140%">
      <feDropShadow dx="0" dy="8" stdDeviation="12" flood-color="#FF512F" flood-opacity="0.5"/>
    </filter>
  </defs>
  
  <rect width="256" height="256" rx="64" fill="url(#bgGlow)" filter="url(#shadow)"/>
  
  <g fill="#FFFFFF">
    <path d="M 128,48 C 83.817,48 48,83.817 48,128 C 48,172.183 83.817,208 128,208 C 172.183,208 208,172.183 208,128 C 208,83.817 172.183,48 128,48 Z M 128,192 C 92.654,192 64,163.346 64,128 C 64,92.654 92.654,64 128,64 C 163.346,64 192,92.654 192,128 C 192,163.346 163.346,192 128,192 Z"/>
    <circle cx="104" cy="112" r="12" />
    <circle cx="152" cy="112" r="12" />
    <path d="M 96,144 C 96,144 112,164 128,164 C 144,164 160,144 160,144" stroke="#FFFFFF" stroke-width="12" stroke-linecap="round" stroke-linejoin="round" fill="none"/>
  </g>
</svg>
